<?xml version="1.0" encoding="utf-8"?>
<!-- Generator: Adobe Illustrator 22.1.0, SVG Export Plug-In . SVG Version: 6.00 Build 0)  -->
<svg version="1.1" id="Layer_1" xmlns="http://www.w3.org/2000/svg" xmlns:xlink="http://www.w3.org/1999/xlink" x="0px" y="0px"
	 viewBox="0 0 175.5 175.5" style="enable-background:new 0 0 175.5 175.5;" xml:space="preserve">
<style type="text/css">
	.st0{fill:#FFFFFF;}
	.st1{fill:#020203;}
</style>
<g>
	<polygon class="st0" points="166.2,17.8 9.9,17.8 88,153.3 	"/>
	<path class="st1" d="M1.2,12.8L88,163.3l86.8-150.5H1.2z M21.4,37.8H27v9.8L21.4,37.8z M144.3,55.8H129v-18h18V51L144.3,55.8z
		 M147,35.8h-18v-18h18V35.8z M109,55.8v-18h18v18H109z M127,57.8v18h-18v-18H127z M109,35.8v-18h18v18H109z M89,95.8v-18h18v18H89z
		 M107,97.8v18H89v-18H107z M89,75.8v-18h18v18H89z M89,55.8v-18h18v18H89z M89,35.8v-18h18v18H89z M87,37.8v18H69v-18H87z M69,35.8
		v-18h18v18H69z M87,57.8v18H69v-18H87z M87,77.8v18H69v-18H87z M87,97.8v18H69v-18H87z M49,55.8v-18h18v18H49z M67,57.8v18H49v-18
		H67z M49,35.8v-18h18v18H49z M47,17.8v18H29v-18H47z M27,17.8v18h-6.8l-10.4-18H27z M29,37.8h18v18H31.8L29,51V37.8z M47,57.8v18
		h-3.7l-10.4-18H47z M47,77.8v4.4l-2.6-4.4H47z M49,77.8h18v18H54.9L49,85.7V77.8z M67,97.8v18h-0.6L56,97.8H67z M69,117.8h18v18
		h-9.1L69,120.3V117.8z M87,137.8v13.8l-7.9-13.8H87z M89,137.8H97L89,151.5V137.8z M89,135.8v-18h18v2.6l-8.9,15.4H89z M109,115.8
		v-18h11l-10.4,18H109z M109,95.8v-18h18v7.9l-5.8,10.1H109z M129,77.8h2.6l-2.6,4.4V77.8z M129,75.8v-18h14.1l-10.4,18H129z
		 M149,37.8h5.6l-5.6,9.8V37.8z M149,35.8v-18h17.2l-10.4,18H149z"/>
</g>
</svg>
